<svg xmlns="http://www.w3.org/2000/svg" viewBox="0 0 32 32" stroke-linecap="round" stroke-linejoin="round"><use href="#a" stroke="#fff" stroke-width="2"/><g id="a"><path d="M3.9 7.59a1.5 1.5 0 0 0-1.5 1.5v13.4a1.5 1.5 0 0 0 1.5 1.5h21.67a1.5 1.5 0 0 0 1.5-1.5V9.09a1.5 1.5 0 0 0-1.5-1.5H3.91Z" fill="#69f"/><path d="M4.36 9.39h4.29a.5.5 0 0 1 .5.5v5.73a.5.5 0 0 1-.5.5h-4.3a.5.5 0 0 1-.5-.5V9.9a.5.5 0 0 1 .5-.5Z" fill="#fff"/><path d="M19.53 17.1a4.88 4.88 0 0 0 8 3.74l2.06 2.06.62-.62-2.06-2.07a4.88 4.88 0 1 0-8.62-3.1zm1 0a3.86 3.86 0 1 1 7.74 0 3.86 3.86 0 1 1-7.74 0zM6.47 11.42c-.14 0-.28.04-.41.09-.46.18-.79.62-.79 1.14 0 .67.56 1.22 1.23 1.22.67 0 1.23-.55 1.23-1.22A1.24 1.24 0 0 0 6.5 11.4h-.03zm.03 2.47a2.87 2.87 0 0 0-2.14.96v.78h4.29v-.78a2.9 2.9 0 0 0-2.15-.96z" fill="#fc0"/><path d="m11.07 11.42 1 1 1-1 1 1 1-1 1 1 1-1 1 1 1-1 1 1 1-1m-10 2.35 1 1 1-1 1 1 1-1 1 1 1-1" fill="none" stroke="#fff"/></g></svg>
