<svg xmlns="http://www.w3.org/2000/svg" viewBox="-1 3 34 26" stroke-linecap="round" stroke-linejoin="round"><style>@keyframes processing{to{transform:translateY(-2px)}}</style><path d="M3.9 7.59a1.5 1.5 0 0 0-1.5 1.5v13.4a1.5 1.5 0 0 0 1.5 1.5h21.67a1.5 1.5 0 0 0 1.5-1.5V9.09a1.5 1.5 0 0 0-1.5-1.5H3.91Z" fill="#69f"/><path d="M4.36 9.39h4.29a.5.5 0 0 1 .5.5v5.73a.5.5 0 0 1-.5.5h-4.3a.5.5 0 0 1-.5-.5V9.9a.5.5 0 0 1 .5-.5Z" fill="#fff"/><path d="M6.47 11.42c-.14 0-.28.04-.41.09-.46.18-.79.62-.79 1.14 0 .67.56 1.22 1.23 1.22.67 0 1.23-.55 1.23-1.22A1.24 1.24 0 0 0 6.5 11.4h-.03zm.03 2.47a2.87 2.87 0 0 0-2.14.96v.78h4.29v-.78a2.9 2.9 0 0 0-2.15-.96zm16.1 6.05v2.17h6.68v-2.17h-1.12v1.07H23.8v-1.07z" fill="#fc0"/><path d="m11.07 11.42 1 1 1-1 1 1 1-1 1 1 1-1 1 1 1-1 1 1 1-1m-10 2.35 1 1 1-1 1 1 1-1 1 1 1-1" fill="none" stroke="#fff"/><path d="m26.09 15.8-1.51 1.97h1v2.15h1.02v-2.15h1z" fill="#fc0" style="animation:1.5s ease-in-out infinite alternate processing" transform-origin="50% 50%"/></svg>
